<svg width="256" height="256" fill="none" xmlns="http://www.w3.org/2000/svg"><path d="M128 256c70.693 0 128-57.307 128-128S198.693 0 128 0 0 57.307 0 128s57.307 128 128 128z" fill="url(#paint0_linear)"/><path d="M109.808 193.36c-7.744 0-15.312-3.226-22.704-9.68-7.392-6.336-13.317-14.55-17.776-24.64s-6.688-20.182-6.688-30.272c0-9.974 2.23-19.946 6.688-29.92 4.341-9.856 10.501-18.128 18.48-24.816C95.67 67.344 104.118 64 113.152 64h71.808v7.92h-12.496c-3.286.47-5.69 2.17-7.216 5.104V177.52c.352 1.994 1.29 3.696 2.816 5.104 1.408 1.526 3.226 2.464 5.456 2.816h11.44v7.92h-75.152zm10.56-120.56c-7.392 0-14.08 2.757-20.064 8.272-5.984 5.514-10.502 12.438-13.552 20.768C83.584 110.288 82 119.498 82 129.472c0 10.09 1.584 19.36 4.752 27.808 3.168 8.566 7.802 15.37 13.904 20.416 5.984 5.046 12.906 7.568 20.768 7.568h19.888c3.168-.47 5.574-2.23 7.216-5.28V80.016c-.586-3.403-2.406-5.808-5.456-7.216h-22.704z" fill="#fff"/><path d="M128 192V72" stroke="#fff" stroke-width="2"/><defs><linearGradient id="paint0_linear" x1="128" y1="0" x2="128" y2="256" gradientUnits="userSpaceOnUse"><stop stop-color="#5142FC"/><stop offset="0" stop-color="#0164D0"/><stop offset=".823" stop-color="#4441F3" stop-opacity=".71"/></linearGradient></defs></svg>